<svg width="53" height="54" viewBox="0 0 53 54" fill="none" xmlns="http://www.w3.org/2000/svg">
<g clip-path="url(#clip0_12_310)">
<path d="M53 26.8794C53 12.2423 41.1371 0.379395 26.5 0.379395C11.8629 0.379395 0 12.2423 0 26.8794C0 41.5165 11.8629 53.3794 26.5 53.3794C41.1371 53.3794 53 41.5165 53 26.8794ZM27.5248 40.0052C26.9037 39.7464 26.5 39.146 26.5 38.4731V31.8481H16.5625C14.7334 31.8481 13.25 30.3648 13.25 28.5356V25.2231C13.25 23.394 14.7334 21.9106 16.5625 21.9106H26.5V15.2856C26.5 14.616 26.9028 14.0114 27.5222 13.7557C28.1417 13.4986 28.8534 13.6409 29.3275 14.1148L40.9213 25.7085C41.568 26.3553 41.568 27.4041 40.9213 28.0501L29.3275 39.6438C28.8498 40.119 28.1459 40.264 27.5248 40.0052Z" fill="white"/>
</g>
<defs>
<clipPath id="clip0_12_310">
<rect width="53" height="53" fill="white" transform="translate(0 0.379395)"/>
</clipPath>
</defs>
</svg>
