<svg width="1440" height="194" viewBox="0 0 1440 194" fill="none" xmlns="http://www.w3.org/2000/svg">
<path fill-rule="evenodd" clip-rule="evenodd" d="M0 193.142L48 171.682C96 150.222 192 107.301 288 69.7459C384 32.1904 480 0 576 21.4603C672 42.9205 768 118.031 864 123.397C960 128.762 1056 64.3808 1152 32.1904C1248 0 1344 0 1392 0H1440V193.142H1392C1344 193.142 1248 193.142 1152 193.142C1056 193.142 960 193.142 864 193.142C768 193.142 672 193.142 576 193.142C480 193.142 384 193.142 288 193.142C192 193.142 96 193.142 48 193.142H0Z" fill="#262626"/>
</svg>
